<svg xmlns="http://www.w3.org/2000/svg" style="display: none">
  <symbol id="compress" viewBox="0 0 448 512">
    <path
      d="M160 64a32 32 0 1 0-64 0v64H32a32 32 0 1 0 0 64h96c18 0 32-14 32-32V64zM32 320a32 32 0 1 0 0 64h64v64a32 32 0 1 0 64 0v-96c0-18-14-32-32-32H32zM352 64a32 32 0 1 0-64 0v96c0 18 14 32 32 32h96a32 32 0 1 0 0-64h-64V64zm-32 256c-18 0-32 14-32 32v96a32 32 0 1 0 64 0v-64h64a32 32 0 1 0 0-64h-96z" />
  </symbol>

  <symbol id="expand" viewBox="0 0 448 512">
    <path
      d="M32 32C14 32 0 46 0 64v96a32 32 0 1 0 64 0V96h64a32 32 0 1 0 0-64H32zm32 320a32 32 0 1 0-64 0v96c0 18 14 32 32 32h96a32 32 0 1 0 0-64H64v-64zM320 32a32 32 0 1 0 0 64h64v64a32 32 0 1 0 64 0V64c0-18-14-32-32-32h-96zm128 320a32 32 0 1 0-64 0v64h-64a32 32 0 1 0 0 64h96c18 0 32-14 32-32v-96z" />
  </symbol>

  <symbol id="solid-star" viewBox="0 0 24 24">
    <path d="m12 2 3.09 6.26L22 9.27l-5 4.87 1.18 6.88L12 17.77l-6.18 3.25L7 14.14 2 9.27l6.91-1.01z" />
  </symbol>

  <symbol id="x-symbol" viewBox="0 0 100 100" stroke-width="11">
    <line x1="10" y1="10" x2="90" y2="90" />
    <line x1="90" y1="10" x2="10" y2="90" />
  </symbol>

  <symbol id="o-symbol" viewBox="0 0 100 96" stroke-width="8">
    <circle cx="50" cy="47" r="44" fill="none" />
  </symbol>

  <symbol id="wifi" viewBox="0 0 640 640">
    <path
      d="M320 160c-91 0-173 36-234 95a32 32 0 1 1-44-46 398 398 0 0 1 556 0 32 32 0 1 1-44 46c-61-59-143-95-234-95m-48 336a48 48 0 1 1 96 0 48 48 0 0 1-96 0m-72-106a32 32 0 1 1-48-42 224 224 0 0 1 336 0 32 32 0 0 1-48 42 159 159 0 0 0-240 0" />
  </symbol>

  <symbol id="users" viewBox="0 0 24 24" fill="none" stroke="currentColor" stroke-linecap="round"
    stroke-linejoin="round" stroke-width="2">
    <path d="M16 21v-2a4 4 0 0 0-4-4H6a4 4 0 0 0-4 4v2" />
    <circle cx="9" cy="7" r="4" />
    <path d="M22 21v-2a4 4 0 0 0-3-4M16 3a4 4 0 0 1 0 8" />
  </symbol>

  <symbol id="arrowLeft" viewBox="0 0 24 24" fill="none" stroke="currentColor" stroke-width="2" stroke-linecap="round">
    <path d="M19 12H5" />
    <path d="m12 19-7-7 7-7" />
  </symbol>

  <symbol id="spinner" viewBox="0 0 24 24" fill="none" stroke="currentColor" stroke-width="2" stroke-linecap="round"
    stroke-linejoin="round">
    <path d="M21 12a9 9 0 1 1-6.219-8.56" />
  </symbol>

  <symbol id="volume" viewBox="0 0 16 16" fill="currentColor">
    <path
      d="M11.536 14.01A8.47 8.47 0 0 0 14.026 8a8.47 8.47 0 0 0-2.49-6.01l-.708.707A7.48 7.48 0 0 1 13.025 8c0 2.071-.84 3.946-2.197 5.303z" />
    <path
      d="M10.121 12.596A6.48 6.48 0 0 0 12.025 8a6.48 6.48 0 0 0-1.904-4.596l-.707.707A5.48 5.48 0 0 1 11.025 8a5.48 5.48 0 0 1-1.61 3.89z" />
    <path
      d="M10.025 8a4.5 4.5 0 0 1-1.318 3.182L8 10.475A3.5 3.5 0 0 0 9.025 8c0-.966-.392-1.841-1.025-2.475l.707-.707A4.5 4.5 0 0 1 10.025 8M7 4a.5.5 0 0 0-.812-.39L3.825 5.5H1.5A.5.5 0 0 0 1 6v4a.5.5 0 0 0 .5.5h2.325l2.363 1.89A.5.5 0 0 0 7 12zM4.312 6.39 6 5.04v5.92L4.312 9.61A.5.5 0 0 0 4 9.5H2v-3h2a.5.5 0 0 0 .312-.11" />
  </symbol>

  <symbol id="computer" viewBox="0 0 640 640">
    <path
      d="M512 160v256H128V160zM128 96c-35 0-64 29-64 64v256c0 35 29 64 64 64h144l-16 48h-72a24 24 0 1 0 0 48h272a24 24 0 1 0 0-48h-72l-16-48h144c35 0 64-29 64-64V160c0-35-29-64-64-64z" />
  </symbol>

  <symbol id="chevronDown" viewBox="0 0 640 640">
    <path d="M297 471c13 12 33 12 46 0l192-192a32 32 0 0 0-46-46L320 403 151 233a32 32 0 0 0-46 46z" />
  </symbol>

  <symbol id="paper-plane" viewBox="0 0 640 640">
    <path
      d="m323 352 200-201-132 369zm166-235L289 318l-169-69zM70 281l206 83 84 206a35 35 0 0 0 65-1L603 72a27 27 0 0 0-35-34L71 216a35 35 0 0 0-1 65" />
  </symbol>

  <symbol id="message" fill="none" viewBox="0 0 24 24">
    <path d="M21 15a2 2 0 0 1-2 2H7l-4 4V5a2 2 0 0 1 2-2h14a2 2 0 0 1 2 2z" />
  </symbol>
</svg>